<svg id="visual" viewBox="0 0 1090 600" width="1090" height="600" xmlns="http://www.w3.org/2000/svg" xmlns:xlink="http://www.w3.org/1999/xlink" version="1.1"><rect x="0" y="0" width="1090" height="600" fill="#002233"></rect><path d="M0 523L26 512.2C52 501.3 104 479.7 155.8 462.2C207.7 444.7 259.3 431.3 311.2 424.8C363 418.3 415 418.7 467 427.7C519 436.7 571 454.3 623 469.8C675 485.3 727 498.7 778.8 483.2C830.7 467.7 882.3 423.3 934.2 401.8C986 380.3 1038 381.7 1064 382.3L1090 383L1090 601L1064 601C1038 601 986 601 934.2 601C882.3 601 830.7 601 778.8 601C727 601 675 601 623 601C571 601 519 601 467 601C415 601 363 601 311.2 601C259.3 601 207.7 601 155.8 601C104 601 52 601 26 601L0 601Z" fill="#0066FF" stroke-linecap="round" stroke-linejoin="miter"></path></svg>